<mxfile host="app.diagrams.net" modified="2021-09-02T15:18:22.312Z" agent="5.0 (Windows NT 10.0; Win64; x64) AppleWebKit/537.36 (KHTML, like Gecko) Chrome/92.0.4515.159 Safari/537.36" etag="UDxsy8EmqIHUXPBlKBVt" version="14.8.0" type="github">
  <diagram id="dY4LAQDZiEf2W0ObNjmR" name="Page-1">
    <mxGraphModel dx="5985" dy="2920" grid="1" gridSize="10" guides="1" tooltips="1" connect="1" arrows="1" fold="1" page="1" pageScale="1" pageWidth="827" pageHeight="1169" math="0" shadow="0">
      <root>
        <mxCell id="0" />
        <mxCell id="1" parent="0" />
        <mxCell id="TVNLrfUiIk2_XGqHMT9i-16" value="" style="endArrow=none;dashed=1;html=1;strokeWidth=2;fillColor=#ffe6cc;strokeColor=#d79b00;" edge="1" parent="1">
          <mxGeometry width="50" height="50" relative="1" as="geometry">
            <mxPoint x="40" y="100" as="sourcePoint" />
            <mxPoint x="40" y="650" as="targetPoint" />
          </mxGeometry>
        </mxCell>
        <mxCell id="TVNLrfUiIk2_XGqHMT9i-23" value="Zone EUW-1 (Ireland)" style="text;html=1;align=center;verticalAlign=middle;resizable=0;points=[];autosize=1;strokeColor=none;" vertex="1" parent="1">
          <mxGeometry x="142.25" y="50" width="130" height="20" as="geometry" />
        </mxCell>
        <mxCell id="TVNLrfUiIk2_XGqHMT9i-34" value="Amazon cloudwatch" style="text;html=1;align=center;verticalAlign=middle;resizable=0;points=[];autosize=1;strokeColor=none;" vertex="1" parent="1">
          <mxGeometry x="470" y="1069" width="120" height="20" as="geometry" />
        </mxCell>
        <mxCell id="TVNLrfUiIk2_XGqHMT9i-36" value="" style="endArrow=none;dashed=1;html=1;strokeWidth=2;fillColor=#ffe6cc;strokeColor=#d79b00;" edge="1" parent="1">
          <mxGeometry width="50" height="50" relative="1" as="geometry">
            <mxPoint x="40" y="100" as="sourcePoint" />
            <mxPoint x="400" y="100" as="targetPoint" />
          </mxGeometry>
        </mxCell>
        <mxCell id="TVNLrfUiIk2_XGqHMT9i-38" value="" style="endArrow=none;dashed=1;html=1;strokeWidth=2;fillColor=#ffe6cc;strokeColor=#d79b00;" edge="1" parent="1">
          <mxGeometry width="50" height="50" relative="1" as="geometry">
            <mxPoint x="391" y="650" as="sourcePoint" />
            <mxPoint x="391" y="100" as="targetPoint" />
          </mxGeometry>
        </mxCell>
        <mxCell id="TVNLrfUiIk2_XGqHMT9i-39" value="" style="endArrow=none;dashed=1;html=1;strokeWidth=2;fillColor=#ffe6cc;strokeColor=#d79b00;" edge="1" parent="1">
          <mxGeometry width="50" height="50" relative="1" as="geometry">
            <mxPoint x="39" y="650.0000000000002" as="sourcePoint" />
            <mxPoint x="390" y="650" as="targetPoint" />
          </mxGeometry>
        </mxCell>
        <mxCell id="TVNLrfUiIk2_XGqHMT9i-57" value="" style="endArrow=none;dashed=1;html=1;strokeWidth=2;fillColor=#dae8fc;strokeColor=#6c8ebf;" edge="1" parent="1">
          <mxGeometry width="50" height="50" relative="1" as="geometry">
            <mxPoint x="72.66" y="939.9999999999998" as="sourcePoint" />
            <mxPoint x="72.66" y="1349.9999999999998" as="targetPoint" />
          </mxGeometry>
        </mxCell>
        <mxCell id="TVNLrfUiIk2_XGqHMT9i-58" value="" style="outlineConnect=0;dashed=0;verticalLabelPosition=bottom;verticalAlign=top;align=center;html=1;shape=mxgraph.aws3.ec2;fillColor=#F58534;gradientColor=none;" vertex="1" parent="1">
          <mxGeometry x="112.66" y="1200" width="76.5" height="93" as="geometry" />
        </mxCell>
        <mxCell id="TVNLrfUiIk2_XGqHMT9i-59" value="Amazon EC2, other&lt;br&gt;&amp;nbsp;instances not yet logged" style="text;html=1;align=center;verticalAlign=middle;resizable=0;points=[];autosize=1;strokeColor=none;" vertex="1" parent="1">
          <mxGeometry x="82.66" y="1295" width="150" height="30" as="geometry" />
        </mxCell>
        <mxCell id="TVNLrfUiIk2_XGqHMT9i-60" value="" style="endArrow=none;dashed=1;html=1;dashPattern=1 3;strokeWidth=2;fillColor=#d5e8d4;strokeColor=#82b366;" edge="1" parent="1">
          <mxGeometry width="50" height="50" relative="1" as="geometry">
            <mxPoint x="200" y="1210" as="sourcePoint" />
            <mxPoint x="361" y="1089.9999999999998" as="targetPoint" />
          </mxGeometry>
        </mxCell>
        <mxCell id="TVNLrfUiIk2_XGqHMT9i-62" value="" style="points=[[0,0,0],[0.25,0,0],[0.5,0,0],[0.75,0,0],[1,0,0],[0,1,0],[0.25,1,0],[0.5,1,0],[0.75,1,0],[1,1,0],[0,0.25,0],[0,0.5,0],[0,0.75,0],[1,0.25,0],[1,0.5,0],[1,0.75,0]];points=[[0,0,0],[0.25,0,0],[0.5,0,0],[0.75,0,0],[1,0,0],[0,1,0],[0.25,1,0],[0.5,1,0],[0.75,1,0],[1,1,0],[0,0.25,0],[0,0.5,0],[0,0.75,0],[1,0.25,0],[1,0.5,0],[1,0.75,0]];outlineConnect=0;fontColor=#232F3E;gradientColor=#F34482;gradientDirection=north;fillColor=#BC1356;strokeColor=#ffffff;dashed=0;verticalLabelPosition=bottom;verticalAlign=top;align=center;html=1;fontSize=12;fontStyle=0;aspect=fixed;shape=mxgraph.aws4.resourceIcon;resIcon=mxgraph.aws4.cloudwatch_2;" vertex="1" parent="1">
          <mxGeometry x="381" y="1040" width="78" height="78" as="geometry" />
        </mxCell>
        <mxCell id="TVNLrfUiIk2_XGqHMT9i-63" value="" style="endArrow=none;dashed=1;html=1;dashPattern=1 3;strokeWidth=2;fillColor=#f8cecc;strokeColor=#b85450;" edge="1" parent="1">
          <mxGeometry width="50" height="50" relative="1" as="geometry">
            <mxPoint x="221" y="1019.9999999999998" as="sourcePoint" />
            <mxPoint x="371" y="1069.9999999999998" as="targetPoint" />
          </mxGeometry>
        </mxCell>
        <mxCell id="TVNLrfUiIk2_XGqHMT9i-64" value="Data Transfer fees&lt;br&gt;" style="text;html=1;align=center;verticalAlign=middle;resizable=0;points=[];autosize=1;strokeColor=#b85450;fillColor=#f8cecc;" vertex="1" parent="1">
          <mxGeometry x="210" y="1000" width="110" height="20" as="geometry" />
        </mxCell>
        <mxCell id="TVNLrfUiIk2_XGqHMT9i-65" value="Amazon Elasticsearch Service" style="outlineConnect=0;fontColor=#232F3E;gradientColor=none;strokeColor=#ffffff;fillColor=#232F3E;dashed=0;verticalLabelPosition=middle;verticalAlign=bottom;align=center;html=1;whiteSpace=wrap;fontSize=10;fontStyle=1;spacing=3;shape=mxgraph.aws4.productIcon;prIcon=mxgraph.aws4.elasticsearch_service;" vertex="1" parent="1">
          <mxGeometry x="122.66" y="960" width="80" height="120" as="geometry" />
        </mxCell>
        <mxCell id="TVNLrfUiIk2_XGqHMT9i-66" value="" style="endArrow=none;dashed=1;html=1;strokeWidth=2;fillColor=#dae8fc;strokeColor=#6c8ebf;" edge="1" parent="1">
          <mxGeometry width="50" height="50" relative="1" as="geometry">
            <mxPoint x="322.66" y="939.9999999999998" as="sourcePoint" />
            <mxPoint x="322.66" y="1349.9999999999998" as="targetPoint" />
          </mxGeometry>
        </mxCell>
        <mxCell id="TVNLrfUiIk2_XGqHMT9i-67" value="" style="endArrow=none;dashed=1;html=1;strokeWidth=2;fillColor=#dae8fc;strokeColor=#6c8ebf;" edge="1" parent="1">
          <mxGeometry width="50" height="50" relative="1" as="geometry">
            <mxPoint x="72.66" y="1349.9999999999998" as="sourcePoint" />
            <mxPoint x="322.66" y="1349.9999999999998" as="targetPoint" />
          </mxGeometry>
        </mxCell>
        <mxCell id="TVNLrfUiIk2_XGqHMT9i-91" value="" style="endArrow=none;dashed=1;html=1;strokeWidth=2;fillColor=#ffe6cc;strokeColor=#d79b00;" edge="1" parent="1">
          <mxGeometry width="50" height="50" relative="1" as="geometry">
            <mxPoint x="30.999999999999773" y="869.9999999999998" as="sourcePoint" />
            <mxPoint x="30.999999999999773" y="1419.9999999999998" as="targetPoint" />
          </mxGeometry>
        </mxCell>
        <mxCell id="TVNLrfUiIk2_XGqHMT9i-92" value="Zone EUW-1 (Ireland)" style="text;html=1;align=center;verticalAlign=middle;resizable=0;points=[];autosize=1;strokeColor=none;" vertex="1" parent="1">
          <mxGeometry x="143.25" y="650" width="130" height="20" as="geometry" />
        </mxCell>
        <mxCell id="TVNLrfUiIk2_XGqHMT9i-93" value="" style="endArrow=none;dashed=1;html=1;strokeWidth=2;fillColor=#ffe6cc;strokeColor=#d79b00;" edge="1" parent="1">
          <mxGeometry width="50" height="50" relative="1" as="geometry">
            <mxPoint x="30.999999999999773" y="869.9999999999998" as="sourcePoint" />
            <mxPoint x="391" y="869.9999999999998" as="targetPoint" />
          </mxGeometry>
        </mxCell>
        <mxCell id="TVNLrfUiIk2_XGqHMT9i-94" value="" style="endArrow=none;dashed=1;html=1;strokeWidth=2;fillColor=#ffe6cc;strokeColor=#d79b00;" edge="1" parent="1">
          <mxGeometry width="50" height="50" relative="1" as="geometry">
            <mxPoint x="382" y="1419.9999999999998" as="sourcePoint" />
            <mxPoint x="382" y="869.9999999999998" as="targetPoint" />
          </mxGeometry>
        </mxCell>
        <mxCell id="TVNLrfUiIk2_XGqHMT9i-95" value="" style="endArrow=none;dashed=1;html=1;strokeWidth=2;fillColor=#ffe6cc;strokeColor=#d79b00;" edge="1" parent="1">
          <mxGeometry width="50" height="50" relative="1" as="geometry">
            <mxPoint x="30" y="1420.0000000000002" as="sourcePoint" />
            <mxPoint x="381" y="1419.9999999999998" as="targetPoint" />
          </mxGeometry>
        </mxCell>
        <mxCell id="TVNLrfUiIk2_XGqHMT9i-96" value="" style="outlineConnect=0;dashed=0;verticalLabelPosition=bottom;verticalAlign=top;align=center;html=1;shape=mxgraph.aws3.ec2;fillColor=#F58534;gradientColor=none;" vertex="1" parent="1">
          <mxGeometry x="109.99999999999997" y="429" width="76.5" height="93" as="geometry" />
        </mxCell>
        <mxCell id="TVNLrfUiIk2_XGqHMT9i-97" value="Amazon Elasticsearch Service" style="outlineConnect=0;fontColor=#232F3E;gradientColor=none;strokeColor=#ffffff;fillColor=#232F3E;dashed=0;verticalLabelPosition=middle;verticalAlign=bottom;align=center;html=1;whiteSpace=wrap;fontSize=10;fontStyle=1;spacing=3;shape=mxgraph.aws4.productIcon;prIcon=mxgraph.aws4.elasticsearch_service;" vertex="1" parent="1">
          <mxGeometry x="159.99999999999997" y="203.32" width="80" height="120" as="geometry" />
        </mxCell>
        <mxCell id="TVNLrfUiIk2_XGqHMT9i-99" value="" style="endArrow=none;dashed=1;html=1;dashPattern=1 3;strokeWidth=2;fillColor=#d5e8d4;strokeColor=#82b366;" edge="1" parent="1">
          <mxGeometry width="50" height="50" relative="1" as="geometry">
            <mxPoint x="202.99999999999997" y="413.31999999999977" as="sourcePoint" />
            <mxPoint x="202.99999999999997" y="333.31999999999977" as="targetPoint" />
          </mxGeometry>
        </mxCell>
        <mxCell id="TVNLrfUiIk2_XGqHMT9i-100" value="" style="endArrow=none;dashed=1;html=1;strokeWidth=2;fillColor=#dae8fc;strokeColor=#6c8ebf;" edge="1" parent="1">
          <mxGeometry width="50" height="50" relative="1" as="geometry">
            <mxPoint x="89.99999999999997" y="583.3199999999998" as="sourcePoint" />
            <mxPoint x="339.99999999999994" y="583.3199999999998" as="targetPoint" />
          </mxGeometry>
        </mxCell>
        <mxCell id="TVNLrfUiIk2_XGqHMT9i-101" value="" style="endArrow=none;dashed=1;html=1;strokeWidth=2;fillColor=#dae8fc;strokeColor=#6c8ebf;" edge="1" parent="1">
          <mxGeometry width="50" height="50" relative="1" as="geometry">
            <mxPoint x="339.99999999999994" y="173.31999999999977" as="sourcePoint" />
            <mxPoint x="339.99999999999994" y="583.3199999999998" as="targetPoint" />
          </mxGeometry>
        </mxCell>
        <mxCell id="TVNLrfUiIk2_XGqHMT9i-102" value="" style="endArrow=none;dashed=1;html=1;strokeWidth=2;fillColor=#dae8fc;strokeColor=#6c8ebf;" edge="1" parent="1">
          <mxGeometry width="50" height="50" relative="1" as="geometry">
            <mxPoint x="89.99999999999997" y="173.31999999999977" as="sourcePoint" />
            <mxPoint x="89.99999999999997" y="583.3199999999998" as="targetPoint" />
          </mxGeometry>
        </mxCell>
        <mxCell id="TVNLrfUiIk2_XGqHMT9i-103" value="&lt;font&gt;No data transfer fees&lt;/font&gt;" style="text;html=1;align=center;verticalAlign=middle;resizable=0;points=[];autosize=1;strokeColor=#82b366;fillColor=#d5e8d4;" vertex="1" parent="1">
          <mxGeometry x="209.99999999999997" y="353.32" width="130" height="20" as="geometry" />
        </mxCell>
        <mxCell id="TVNLrfUiIk2_XGqHMT9i-104" value="Availabilty Zone 1" style="text;html=1;align=center;verticalAlign=middle;resizable=0;points=[];autosize=1;strokeColor=none;" vertex="1" parent="1">
          <mxGeometry x="152.24999999999997" y="143.32" width="110" height="20" as="geometry" />
        </mxCell>
        <mxCell id="TVNLrfUiIk2_XGqHMT9i-105" value="" style="endArrow=none;dashed=1;html=1;strokeWidth=2;fillColor=#dae8fc;strokeColor=#6c8ebf;" edge="1" parent="1">
          <mxGeometry width="50" height="50" relative="1" as="geometry">
            <mxPoint x="89.99999999999997" y="173.32000000000022" as="sourcePoint" />
            <mxPoint x="339.99999999999994" y="173.32000000000022" as="targetPoint" />
          </mxGeometry>
        </mxCell>
        <mxCell id="TVNLrfUiIk2_XGqHMT9i-68" value="&lt;span style=&quot;color: rgb(0, 0, 0); font-family: helvetica; font-size: 12px; font-style: normal; font-weight: 400; letter-spacing: normal; text-align: center; text-indent: 0px; text-transform: none; word-spacing: 0px; background-color: rgb(248, 249, 250); display: inline; float: none;&quot;&gt;Availabilty Zone 1&lt;/span&gt;" style="text;whiteSpace=wrap;html=1;" vertex="1" parent="1">
          <mxGeometry x="137.25" y="900" width="120" height="30" as="geometry" />
        </mxCell>
        <mxCell id="TVNLrfUiIk2_XGqHMT9i-106" value="" style="endArrow=none;dashed=1;html=1;strokeWidth=2;fillColor=#dae8fc;strokeColor=#6c8ebf;" edge="1" parent="1">
          <mxGeometry width="50" height="50" relative="1" as="geometry">
            <mxPoint x="72.66000000000008" y="940" as="sourcePoint" />
            <mxPoint x="320" y="940" as="targetPoint" />
          </mxGeometry>
        </mxCell>
        <mxCell id="TVNLrfUiIk2_XGqHMT9i-107" value="&lt;font color=&quot;#ff003c&quot;&gt;Scenario 2: Direct Communication EC2 and AES&lt;/font&gt;" style="text;html=1;align=center;verticalAlign=middle;resizable=0;points=[];autosize=1;strokeColor=none;fontColor=#000000;" vertex="1" parent="1">
          <mxGeometry x="65" y="20" width="270" height="20" as="geometry" />
        </mxCell>
        <mxCell id="TVNLrfUiIk2_XGqHMT9i-108" value="&lt;font color=&quot;#ff003c&quot;&gt;Scenario 1: Indirect communication with Amazon Cloudwatch&lt;/font&gt;" style="text;html=1;align=center;verticalAlign=middle;resizable=0;points=[];autosize=1;strokeColor=none;fontColor=#000000;" vertex="1" parent="1">
          <mxGeometry x="27.25" y="800" width="340" height="20" as="geometry" />
        </mxCell>
        <mxCell id="TVNLrfUiIk2_XGqHMT9i-109" value="Zone EUW-1 (Ireland)" style="text;html=1;align=center;verticalAlign=middle;resizable=0;points=[];autosize=1;strokeColor=none;" vertex="1" parent="1">
          <mxGeometry x="123.25" y="830" width="130" height="20" as="geometry" />
        </mxCell>
        <mxCell id="TVNLrfUiIk2_XGqHMT9i-112" value="&lt;font&gt;No data transfer fees&lt;/font&gt;" style="text;html=1;align=center;verticalAlign=middle;resizable=0;points=[];autosize=1;strokeColor=#82b366;fillColor=#d5e8d4;" vertex="1" parent="1">
          <mxGeometry x="132.24999999999997" y="1130" width="130" height="20" as="geometry" />
        </mxCell>
        <mxCell id="TVNLrfUiIk2_XGqHMT9i-113" value="" style="outlineConnect=0;dashed=0;verticalLabelPosition=bottom;verticalAlign=top;align=center;html=1;shape=mxgraph.aws3.lambda_function;fillColor=#F58534;gradientColor=none;fontColor=#000000;" vertex="1" parent="1">
          <mxGeometry x="205" y="1220" width="69" height="72" as="geometry" />
        </mxCell>
        <mxCell id="TVNLrfUiIk2_XGqHMT9i-114" value="" style="endArrow=none;dashed=1;html=1;dashPattern=1 3;strokeWidth=2;fillColor=#d5e8d4;strokeColor=#82b366;" edge="1" parent="1">
          <mxGeometry width="50" height="50" relative="1" as="geometry">
            <mxPoint x="280" y="1220" as="sourcePoint" />
            <mxPoint x="371" y="1090" as="targetPoint" />
          </mxGeometry>
        </mxCell>
        <mxCell id="TVNLrfUiIk2_XGqHMT9i-115" value="Currently CloudWatch logged services by Priogen, like AWS Lambda" style="text;html=1;align=center;verticalAlign=middle;resizable=0;points=[];autosize=1;strokeColor=none;fontColor=#000000;" vertex="1" parent="1">
          <mxGeometry x="22.25" y="1450" width="380" height="20" as="geometry" />
        </mxCell>
        <mxCell id="TVNLrfUiIk2_XGqHMT9i-117" value="**" style="text;html=1;align=center;verticalAlign=middle;resizable=0;points=[];autosize=1;strokeColor=none;fontColor=#000000;" vertex="1" parent="1">
          <mxGeometry x="252.25" y="1200" width="20" height="20" as="geometry" />
        </mxCell>
        <mxCell id="TVNLrfUiIk2_XGqHMT9i-166" value="Amazon cloudwatch" style="text;html=1;align=center;verticalAlign=middle;resizable=0;points=[];autosize=1;strokeColor=none;" vertex="1" parent="1">
          <mxGeometry x="1107.75" y="1092" width="120" height="20" as="geometry" />
        </mxCell>
        <mxCell id="TVNLrfUiIk2_XGqHMT9i-167" value="" style="endArrow=none;dashed=1;html=1;strokeWidth=2;fillColor=#dae8fc;strokeColor=#6c8ebf;" edge="1" parent="1">
          <mxGeometry width="50" height="50" relative="1" as="geometry">
            <mxPoint x="710.4100000000003" y="940" as="sourcePoint" />
            <mxPoint x="710" y="1200" as="targetPoint" />
          </mxGeometry>
        </mxCell>
        <mxCell id="TVNLrfUiIk2_XGqHMT9i-170" value="" style="endArrow=none;dashed=1;html=1;dashPattern=1 3;strokeWidth=2;fillColor=#d5e8d4;strokeColor=#82b366;" edge="1" parent="1">
          <mxGeometry width="50" height="50" relative="1" as="geometry">
            <mxPoint x="859" y="1104.5" as="sourcePoint" />
            <mxPoint x="1020" y="1105" as="targetPoint" />
          </mxGeometry>
        </mxCell>
        <mxCell id="TVNLrfUiIk2_XGqHMT9i-171" value="" style="points=[[0,0,0],[0.25,0,0],[0.5,0,0],[0.75,0,0],[1,0,0],[0,1,0],[0.25,1,0],[0.5,1,0],[0.75,1,0],[1,1,0],[0,0.25,0],[0,0.5,0],[0,0.75,0],[1,0.25,0],[1,0.5,0],[1,0.75,0]];points=[[0,0,0],[0.25,0,0],[0.5,0,0],[0.75,0,0],[1,0,0],[0,1,0],[0.25,1,0],[0.5,1,0],[0.75,1,0],[1,1,0],[0,0.25,0],[0,0.5,0],[0,0.75,0],[1,0.25,0],[1,0.5,0],[1,0.75,0]];outlineConnect=0;fontColor=#232F3E;gradientColor=#F34482;gradientDirection=north;fillColor=#BC1356;strokeColor=#ffffff;dashed=0;verticalLabelPosition=bottom;verticalAlign=top;align=center;html=1;fontSize=12;fontStyle=0;aspect=fixed;shape=mxgraph.aws4.resourceIcon;resIcon=mxgraph.aws4.cloudwatch_2;" vertex="1" parent="1">
          <mxGeometry x="1020" y="1063" width="78" height="78" as="geometry" />
        </mxCell>
        <mxCell id="TVNLrfUiIk2_XGqHMT9i-175" value="" style="endArrow=none;dashed=1;html=1;strokeWidth=2;fillColor=#dae8fc;strokeColor=#6c8ebf;" edge="1" parent="1">
          <mxGeometry width="50" height="50" relative="1" as="geometry">
            <mxPoint x="960.4099999999999" y="940" as="sourcePoint" />
            <mxPoint x="960" y="1200" as="targetPoint" />
          </mxGeometry>
        </mxCell>
        <mxCell id="TVNLrfUiIk2_XGqHMT9i-176" value="" style="endArrow=none;dashed=1;html=1;strokeWidth=2;fillColor=#dae8fc;strokeColor=#6c8ebf;" edge="1" parent="1">
          <mxGeometry width="50" height="50" relative="1" as="geometry">
            <mxPoint x="701.0000000000003" y="1200" as="sourcePoint" />
            <mxPoint x="950.9999999999999" y="1200" as="targetPoint" />
          </mxGeometry>
        </mxCell>
        <mxCell id="TVNLrfUiIk2_XGqHMT9i-177" value="" style="endArrow=none;dashed=1;html=1;strokeWidth=2;fillColor=#ffe6cc;strokeColor=#d79b00;" edge="1" parent="1">
          <mxGeometry width="50" height="50" relative="1" as="geometry">
            <mxPoint x="668.7499999999998" y="870" as="sourcePoint" />
            <mxPoint x="669" y="1240" as="targetPoint" />
          </mxGeometry>
        </mxCell>
        <mxCell id="TVNLrfUiIk2_XGqHMT9i-178" value="" style="endArrow=none;dashed=1;html=1;strokeWidth=2;fillColor=#ffe6cc;strokeColor=#d79b00;" edge="1" parent="1">
          <mxGeometry width="50" height="50" relative="1" as="geometry">
            <mxPoint x="668.7499999999998" y="870" as="sourcePoint" />
            <mxPoint x="1028.75" y="870" as="targetPoint" />
          </mxGeometry>
        </mxCell>
        <mxCell id="TVNLrfUiIk2_XGqHMT9i-179" value="" style="endArrow=none;dashed=1;html=1;strokeWidth=2;fillColor=#ffe6cc;strokeColor=#d79b00;" edge="1" parent="1">
          <mxGeometry width="50" height="50" relative="1" as="geometry">
            <mxPoint x="1020" y="1230" as="sourcePoint" />
            <mxPoint x="1019.75" y="870" as="targetPoint" />
          </mxGeometry>
        </mxCell>
        <mxCell id="TVNLrfUiIk2_XGqHMT9i-180" value="" style="endArrow=none;dashed=1;html=1;strokeWidth=2;fillColor=#ffe6cc;strokeColor=#d79b00;" edge="1" parent="1">
          <mxGeometry width="50" height="50" relative="1" as="geometry">
            <mxPoint x="669" y="1229.29" as="sourcePoint" />
            <mxPoint x="1020" y="1229.29" as="targetPoint" />
          </mxGeometry>
        </mxCell>
        <mxCell id="TVNLrfUiIk2_XGqHMT9i-181" value="&lt;span style=&quot;color: rgb(0, 0, 0); font-family: helvetica; font-size: 12px; font-style: normal; font-weight: 400; letter-spacing: normal; text-align: center; text-indent: 0px; text-transform: none; word-spacing: 0px; background-color: rgb(248, 249, 250); display: inline; float: none;&quot;&gt;Availabilty Zone 1&lt;/span&gt;" style="text;whiteSpace=wrap;html=1;" vertex="1" parent="1">
          <mxGeometry x="775" y="900" width="120" height="30" as="geometry" />
        </mxCell>
        <mxCell id="TVNLrfUiIk2_XGqHMT9i-182" value="" style="endArrow=none;dashed=1;html=1;strokeWidth=2;fillColor=#dae8fc;strokeColor=#6c8ebf;" edge="1" parent="1">
          <mxGeometry width="50" height="50" relative="1" as="geometry">
            <mxPoint x="710.4100000000003" y="940" as="sourcePoint" />
            <mxPoint x="957.75" y="940" as="targetPoint" />
          </mxGeometry>
        </mxCell>
        <mxCell id="TVNLrfUiIk2_XGqHMT9i-183" value="&lt;font color=&quot;#ff003c&quot;&gt;Scenario 0: Current scenario&lt;/font&gt;" style="text;html=1;align=center;verticalAlign=middle;resizable=0;points=[];autosize=1;strokeColor=none;fontColor=#000000;" vertex="1" parent="1">
          <mxGeometry x="750" y="800" width="170" height="20" as="geometry" />
        </mxCell>
        <mxCell id="TVNLrfUiIk2_XGqHMT9i-184" value="Zone EUW-1 (Ireland)" style="text;html=1;align=center;verticalAlign=middle;resizable=0;points=[];autosize=1;strokeColor=none;" vertex="1" parent="1">
          <mxGeometry x="761" y="830" width="130" height="20" as="geometry" />
        </mxCell>
        <mxCell id="TVNLrfUiIk2_XGqHMT9i-185" value="&lt;font&gt;No data transfer fees&lt;/font&gt;" style="text;html=1;align=center;verticalAlign=middle;resizable=0;points=[];autosize=1;strokeColor=#82b366;fillColor=#d5e8d4;" vertex="1" parent="1">
          <mxGeometry x="880" y="1069" width="130" height="20" as="geometry" />
        </mxCell>
        <mxCell id="TVNLrfUiIk2_XGqHMT9i-186" value="" style="outlineConnect=0;dashed=0;verticalLabelPosition=bottom;verticalAlign=top;align=center;html=1;shape=mxgraph.aws3.lambda_function;fillColor=#F58534;gradientColor=none;fontColor=#000000;" vertex="1" parent="1">
          <mxGeometry x="780" y="1069" width="69" height="72" as="geometry" />
        </mxCell>
        <mxCell id="TVNLrfUiIk2_XGqHMT9i-188" value="Currently CloudWatch logged services by Priogen, like AWS Lambda" style="text;html=1;align=center;verticalAlign=middle;resizable=0;points=[];autosize=1;strokeColor=none;fontColor=#000000;" vertex="1" parent="1">
          <mxGeometry x="659" y="1260" width="380" height="20" as="geometry" />
        </mxCell>
        <mxCell id="TVNLrfUiIk2_XGqHMT9i-189" value="**" style="text;html=1;align=center;verticalAlign=middle;resizable=0;points=[];autosize=1;strokeColor=none;fontColor=#000000;" vertex="1" parent="1">
          <mxGeometry x="1000" y="1240" width="20" height="20" as="geometry" />
        </mxCell>
        <mxCell id="TVNLrfUiIk2_XGqHMT9i-192" value="$" style="text;html=1;align=center;verticalAlign=middle;resizable=0;points=[];autosize=1;strokeColor=#d6b656;fillColor=#fff2cc;" vertex="1" parent="1">
          <mxGeometry x="1107.75" y="1063" width="20" height="20" as="geometry" />
        </mxCell>
        <mxCell id="TVNLrfUiIk2_XGqHMT9i-193" value="$" style="text;html=1;align=center;verticalAlign=middle;resizable=0;points=[];autosize=1;strokeColor=#d6b656;fillColor=#fff2cc;" vertex="1" parent="1">
          <mxGeometry x="470" y="1040" width="20" height="20" as="geometry" />
        </mxCell>
        <mxCell id="TVNLrfUiIk2_XGqHMT9i-194" value="$" style="text;html=1;align=center;verticalAlign=middle;resizable=0;points=[];autosize=1;strokeColor=#d6b656;fillColor=#fff2cc;" vertex="1" parent="1">
          <mxGeometry x="210" y="960" width="20" height="20" as="geometry" />
        </mxCell>
        <mxCell id="TVNLrfUiIk2_XGqHMT9i-195" value="" style="outlineConnect=0;dashed=0;verticalLabelPosition=bottom;verticalAlign=top;align=center;html=1;shape=mxgraph.aws3.lambda_function;fillColor=#F58534;gradientColor=none;fontColor=#000000;" vertex="1" parent="1">
          <mxGeometry x="243.25" y="439.5" width="69" height="72" as="geometry" />
        </mxCell>
        <mxCell id="TVNLrfUiIk2_XGqHMT9i-196" value="$" style="text;html=1;align=center;verticalAlign=middle;resizable=0;points=[];autosize=1;strokeColor=#d6b656;fillColor=#fff2cc;" vertex="1" parent="1">
          <mxGeometry x="243.25" y="203.32000000000005" width="20" height="20" as="geometry" />
        </mxCell>
        <mxCell id="TVNLrfUiIk2_XGqHMT9i-197" value="Amazon EC2, other&lt;br&gt;&amp;nbsp;instances not yet logged" style="text;html=1;align=center;verticalAlign=middle;resizable=0;points=[];autosize=1;strokeColor=none;" vertex="1" parent="1">
          <mxGeometry x="80" y="522" width="150" height="30" as="geometry" />
        </mxCell>
        <mxCell id="TVNLrfUiIk2_XGqHMT9i-198" value="Currently CloudWatch logged services by Priogen, like AWS Lambda" style="text;html=1;align=center;verticalAlign=middle;resizable=0;points=[];autosize=1;strokeColor=none;fontColor=#000000;" vertex="1" parent="1">
          <mxGeometry x="34" y="690" width="380" height="20" as="geometry" />
        </mxCell>
        <mxCell id="TVNLrfUiIk2_XGqHMT9i-199" value="$" style="text;html=1;align=center;verticalAlign=middle;resizable=0;points=[];autosize=1;strokeColor=#d6b656;fillColor=#fff2cc;" vertex="1" parent="1">
          <mxGeometry x="27.25" y="1480" width="20" height="20" as="geometry" />
        </mxCell>
        <mxCell id="TVNLrfUiIk2_XGqHMT9i-200" value="=" style="text;html=1;align=center;verticalAlign=middle;resizable=0;points=[];autosize=1;strokeColor=none;fontColor=#000000;" vertex="1" parent="1">
          <mxGeometry x="50" y="1480" width="20" height="20" as="geometry" />
        </mxCell>
        <mxCell id="TVNLrfUiIk2_XGqHMT9i-201" value="services that charge usage fees" style="text;html=1;align=center;verticalAlign=middle;resizable=0;points=[];autosize=1;strokeColor=none;fontColor=#000000;" vertex="1" parent="1">
          <mxGeometry x="77.25" y="1480" width="180" height="20" as="geometry" />
        </mxCell>
        <mxCell id="TVNLrfUiIk2_XGqHMT9i-203" value="$" style="text;html=1;align=center;verticalAlign=middle;resizable=0;points=[];autosize=1;strokeColor=#d6b656;fillColor=#fff2cc;" vertex="1" parent="1">
          <mxGeometry x="39.91" y="720" width="20" height="20" as="geometry" />
        </mxCell>
        <mxCell id="TVNLrfUiIk2_XGqHMT9i-204" value="=" style="text;html=1;align=center;verticalAlign=middle;resizable=0;points=[];autosize=1;strokeColor=none;fontColor=#000000;" vertex="1" parent="1">
          <mxGeometry x="62.66" y="720" width="20" height="20" as="geometry" />
        </mxCell>
        <mxCell id="TVNLrfUiIk2_XGqHMT9i-205" value="services that charge fees&lt;br&gt;" style="text;html=1;align=center;verticalAlign=middle;resizable=0;points=[];autosize=1;strokeColor=none;fontColor=#000000;" vertex="1" parent="1">
          <mxGeometry x="82.66" y="720" width="150" height="20" as="geometry" />
        </mxCell>
      </root>
    </mxGraphModel>
  </diagram>
</mxfile>
